REM DIRINDEX 1\4,1\2\5,1\2\6,1\2\7,1\3\8,1\3\9,1\3\10,1\3\11
REM DIRNAME cjc108,folder01,folder02,folder03,folder04,folder05,folder06,folder07,folder08,folder09,folder10
TITLE ""
FILE "t_j_19.mp3" MP3
  TRACK 01 AUDIO
    TITLE "8:cjc108_2075"
    INDEX 01 00:00:00
  TRACK 02 AUDIO
    TITLE "0:"
    INDEX 01 00:02:45
  TRACK 03 AUDIO
    TITLE "9:cjc108_2076"
    INDEX 01 00:03:55
  TRACK 04 AUDIO
    TITLE "0:"
    INDEX 01 00:05:05
  TRACK 05 AUDIO
    TITLE "10:cjc108_2077"
    INDEX 01 00:05:14
  TRACK 06 AUDIO
    TITLE "0:"
    INDEX 01 00:07:41
  TRACK 07 AUDIO
    TITLE "9:cjc108_2078"
    INDEX 01 00:08:17
  TRACK 08 AUDIO
    TITLE "0:"
    INDEX 01 00:09:32
  TRACK 09 AUDIO
    TITLE "10:cjc108_2079"
    INDEX 01 00:09:45
  TRACK 10 AUDIO
    TITLE "0:"
    INDEX 01 00:10:49
  TRACK 11 AUDIO
    TITLE "11:cjc108_2080"
    INDEX 01 00:11:25
  TRACK 12 AUDIO
    TITLE "0:"
    INDEX 01 00:16:18
  TRACK 13 AUDIO
    TITLE "9:cjc108_2081"
    INDEX 01 00:17:70
  TRACK 14 AUDIO
    TITLE "0:"
    INDEX 01 00:19:20
  TRACK 15 AUDIO
    TITLE "10:cjc108_2082"
    INDEX 01 00:19:22
  TRACK 16 AUDIO
    TITLE "0:"
    INDEX 01 00:20:47
  TRACK 17 AUDIO
    TITLE "9:cjc108_2083"
    INDEX 01 00:21:19
  TRACK 18 AUDIO
    TITLE "0:"
    INDEX 01 00:22:38
  TRACK 19 AUDIO
    TITLE "10:cjc108_2084"
    INDEX 01 00:22:50
  TRACK 20 AUDIO
    TITLE "0:"
    INDEX 01 00:25:23
  TRACK 21 AUDIO
    TITLE "9:cjc108_2085"
    INDEX 01 00:26:01
  TRACK 22 AUDIO
    TITLE "0:"
    INDEX 01 00:27:14
  TRACK 23 AUDIO
    TITLE "10:cjc108_2086"
    INDEX 01 00:27:26
  TRACK 24 AUDIO
    TITLE "0:"
    INDEX 01 00:29:48
  TRACK 25 AUDIO
    TITLE "11:cjc108_2087"
    INDEX 01 00:30:24
  TRACK 26 AUDIO
    TITLE "0:"
    INDEX 01 00:37:05
  TRACK 27 AUDIO
    TITLE "9:cjc108_2088"
    INDEX 01 00:38:61
  TRACK 28 AUDIO
    TITLE "0:"
    INDEX 01 00:40:05
  TRACK 29 AUDIO
    TITLE "10:cjc108_2089"
    INDEX 01 00:40:07
  TRACK 30 AUDIO
    TITLE "0:"
    INDEX 01 00:41:61
  TRACK 31 AUDIO
    TITLE "9:cjc108_2090"
    INDEX 01 00:42:39
  TRACK 32 AUDIO
    TITLE "0:"
    INDEX 01 00:43:46
  TRACK 33 AUDIO
    TITLE "10:cjc108_2091"
    INDEX 01 00:43:56
  TRACK 34 AUDIO
    TITLE "0:"
    INDEX 01 00:45:61
  TRACK 35 AUDIO
    TITLE "9:cjc108_2092"
    INDEX 01 00:46:39
  TRACK 36 AUDIO
    TITLE "0:"
    INDEX 01 00:47:42
  TRACK 37 AUDIO
    TITLE "10:cjc108_2093"
    INDEX 01 00:47:44
  TRACK 38 AUDIO
    TITLE "0:"
    INDEX 01 00:49:27
  TRACK 39 AUDIO
    TITLE "9:cjc108_2094"
    INDEX 01 00:50:01
  TRACK 40 AUDIO
    TITLE "0:"
    INDEX 01 00:51:22
  TRACK 41 AUDIO
    TITLE "10:cjc108_2095"
    INDEX 01 00:51:26
  TRACK 42 AUDIO
    TITLE "0:"
    INDEX 01 00:53:35
  TRACK 43 AUDIO
    TITLE "11:cjc108_2096"
    INDEX 01 00:54:11
  TRACK 44 AUDIO
    TITLE "0:"
    INDEX 01 01:00:37
  TRACK 45 AUDIO
    TITLE "9:cjc108_2097"
    INDEX 01 01:02:14
  TRACK 46 AUDIO
    TITLE "0:"
    INDEX 01 01:03:20
  TRACK 47 AUDIO
    TITLE "10:cjc108_2098"
    INDEX 01 01:03:26
  TRACK 48 AUDIO
    TITLE "0:"
    INDEX 01 01:04:68
  TRACK 49 AUDIO
    TITLE "9:cjc108_2099"
    INDEX 01 01:05:52
  TRACK 50 AUDIO
    TITLE "0:"
    INDEX 01 01:06:57
  TRACK 51 AUDIO
    TITLE "10:cjc108_2100"
    INDEX 01 01:06:61
  TRACK 52 AUDIO
    TITLE "0:"
    INDEX 01 01:09:14
  TRACK 53 AUDIO
    TITLE "11:cjc108_2101"
    INDEX 01 01:09:63
  TRACK 54 AUDIO
    TITLE "0:"
    INDEX 01 01:15:19
  TRACK 55 AUDIO
    TITLE "9:cjc108_2102"
    INDEX 01 01:15:74
  TRACK 56 AUDIO
    TITLE "0:"
    INDEX 01 01:17:45
  TRACK 57 AUDIO
    TITLE "10:cjc108_2103"
    INDEX 01 01:17:59
  TRACK 58 AUDIO
    TITLE "0:"
    INDEX 01 01:20:06
  TRACK 59 AUDIO
    TITLE "11:cjc108_2104"
    INDEX 01 01:20:53
  TRACK 60 AUDIO
    TITLE "0:"
    INDEX 01 01:28:61
  TRACK 61 AUDIO
    TITLE "9:cjc108_2105"
    INDEX 01 01:30:42
  TRACK 62 AUDIO
    TITLE "0:"
    INDEX 01 01:32:08
  TRACK 63 AUDIO
    TITLE "10:cjc108_2106"
    INDEX 01 01:32:10
  TRACK 64 AUDIO
    TITLE "0:"
    INDEX 01 01:34:67
  TRACK 65 AUDIO
    TITLE "11:cjc108_2107"
    INDEX 01 01:35:41
  TRACK 66 AUDIO
    TITLE "0:"
    INDEX 01 01:40:03
